<svg width="117" height="76" viewBox="0 0 117 76" fill="none" xmlns="http://www.w3.org/2000/svg">
<path d="M23.1302 11.264C19.5782 9.44 16.7302 8.528 14.5862 8.528C13.9782 8.528 13.4982 8.64 13.1462 8.864C12.7942 9.056 12.6182 9.36 12.6182 9.776C12.6182 10.256 12.9382 10.656 13.5782 10.976C14.2502 11.264 15.3062 11.6 16.7462 11.984C18.6662 12.528 20.2502 13.072 21.4982 13.616C22.7782 14.16 23.8822 14.992 24.8102 16.112C25.7702 17.2 26.2502 18.608 26.2502 20.336C26.2502 22.992 25.1942 25.104 23.0822 26.672C21.0022 28.208 18.2342 28.976 14.7782 28.976C12.4742 28.976 10.2662 28.672 8.15423 28.064C6.07423 27.424 4.18623 26.496 2.49023 25.28L5.46623 19.184C7.09823 20.24 8.71423 21.04 10.3142 21.584C11.9462 22.128 13.4822 22.4 14.9222 22.4C15.5942 22.4 16.1222 22.304 16.5062 22.112C16.8902 21.888 17.0822 21.584 17.0822 21.2C17.0822 20.72 16.7622 20.336 16.1222 20.048C15.5142 19.728 14.4902 19.376 13.0502 18.992C11.1942 18.48 9.64223 17.952 8.39423 17.408C7.14623 16.864 6.05823 16.048 5.13023 14.96C4.20223 13.872 3.73823 12.464 3.73823 10.736C3.73823 8.048 4.76223 5.92 6.81023 4.352C8.85823 2.784 11.5462 2 14.8742 2C18.8742 2 22.6982 3.056 26.3462 5.168L23.1302 11.264Z" fill="black"/>
<path d="M42.725 2C47.013 2 50.357 3.28 52.757 5.84C55.157 8.368 56.357 11.84 56.357 16.256C56.357 16.928 56.341 17.424 56.309 17.744H38.741C39.125 18.992 39.749 19.952 40.613 20.624C41.509 21.296 42.581 21.632 43.829 21.632C45.845 21.632 47.765 20.8 49.589 19.136L54.629 24.08C53.253 25.616 51.573 26.784 49.589 27.584C47.637 28.384 45.445 28.784 43.013 28.784C40.133 28.784 37.637 28.24 35.525 27.152C33.413 26.032 31.781 24.48 30.629 22.496C29.509 20.48 28.949 18.144 28.949 15.488C28.949 12.8 29.525 10.448 30.677 8.432C31.829 6.384 33.445 4.8 35.525 3.68C37.605 2.56 40.005 2 42.725 2ZM46.757 12.992C46.789 11.712 46.437 10.656 45.701 9.824C44.965 8.992 44.005 8.576 42.821 8.576C41.701 8.576 40.773 8.976 40.037 9.776C39.301 10.576 38.805 11.648 38.549 12.992H46.757Z" fill="black"/>
<path d="M65.0672 14.9268C65.8729 14.6477 66.4914 14.2654 66.9011 13.7667C67.4454 13.1041 67.6939 12.1067 67.6939 10.824V7.72C67.6939 7.00192 67.8697 6.58911 68.1398 6.38259C68.2775 6.27727 68.504 6.18331 68.8436 6.11742C69.1798 6.05218 69.6079 6.018 70.1319 6.018H70.3819V5.768V1V0.75H70.1319H67.6039C66.0983 0.75 64.8929 0.89999 64.0013 1.21204C63.1 1.5275 62.4284 2.05368 62.01 2.79743L62.01 2.7974L62.0072 2.80271C61.6176 3.53594 61.4339 4.52071 61.4339 5.736V11.24C61.4339 11.6933 61.3487 11.9448 61.2411 12.0659L61.2411 12.0659L61.2398 12.0674C61.1623 12.1559 60.9878 12.238 60.6279 12.238H59.2839H59.0339V12.488V17.384V17.634H59.2839H60.6279C60.9798 17.634 61.1507 17.7228 61.2306 17.8255L61.2402 17.8378L61.2512 17.8488C61.3482 17.9458 61.4339 18.1672 61.4339 18.6V24.136C61.4339 25.3506 61.6174 26.3266 62.0087 27.0402L62.01 27.0426C62.4284 27.7863 63.1 28.3125 64.0013 28.628C64.8929 28.94 66.0983 29.09 67.6039 29.09H70.1319H70.3819V28.84V24.072V23.822H70.1319C69.6079 23.822 69.1798 23.7878 68.8436 23.7226C68.504 23.6567 68.2775 23.5627 68.1398 23.4574C67.8697 23.2509 67.6939 22.8381 67.6939 22.12V19.016C67.6939 17.7533 67.4449 16.7673 66.9011 16.1053C66.4918 15.6071 65.8735 15.2184 65.0672 14.9268Z" fill="#FFC400" stroke="#FFC400" stroke-width="0.5"/>
<path d="M84.286 12.488V12.238H84.036H82.692C82.3491 12.238 82.1535 12.1633 82.048 12.066C81.957 11.9387 81.886 11.6829 81.886 11.24V5.736C81.886 4.52054 81.6916 3.5345 81.2793 2.80005C80.8821 2.05398 80.2195 1.52734 79.3186 1.21204C78.427 0.89999 77.2216 0.75 75.716 0.75H73.188H72.938V1V5.768V6.018H73.188C73.712 6.018 74.1401 6.05218 74.4764 6.11742C74.8159 6.18331 75.0424 6.27727 75.1801 6.38259C75.4502 6.58911 75.626 7.00192 75.626 7.72V10.824C75.626 12.1067 75.8745 13.1041 76.4188 13.7667C76.8285 14.2654 77.447 14.6477 78.2528 14.9268C77.4464 15.2184 76.8281 15.6071 76.4188 16.1053C75.875 16.7673 75.626 17.7533 75.626 19.016V22.12C75.626 22.8381 75.4502 23.2509 75.1801 23.4574C75.0424 23.5627 74.8159 23.6567 74.4764 23.7226C74.1401 23.7878 73.712 23.822 73.188 23.822H72.938V24.072V28.84V29.09H73.188H75.716C77.2216 29.09 78.427 28.94 79.3186 28.628C80.2189 28.3129 80.8812 27.7867 81.2785 27.0415C81.6922 26.3267 81.886 25.3499 81.886 24.136V18.6C81.886 18.1629 81.9623 17.9353 82.0476 17.8373C82.1516 17.7209 82.3446 17.634 82.692 17.634H84.036H84.286V17.384V12.488Z" fill="#FFC400" stroke="#FFC400" stroke-width="0.5"/>
<path d="M18.446 68.116C17.4647 70.5693 16.1153 72.3787 14.398 73.544C12.6807 74.74 10.5647 75.338 8.05 75.338C6.51667 75.338 5.106 75.108 3.818 74.648C2.53 74.2187 1.25733 73.5287 0 72.578L3.864 66.368C4.44667 66.8893 4.99867 67.2573 5.52 67.472C6.04133 67.6867 6.60867 67.794 7.222 67.794C8.51 67.794 9.41467 67.2573 9.936 66.184L10.396 65.31L0.046 40.976H9.568L15.042 56.294L19.688 40.976H28.934L18.446 68.116Z" fill="black"/>
<path d="M106.824 40.504C108.68 40.504 110.312 40.92 111.72 41.752C113.16 42.552 114.264 43.704 115.032 45.208C115.832 46.712 116.232 48.456 116.232 50.44V67H106.536V53.224C106.536 51.944 106.184 50.92 105.48 50.152C104.808 49.384 103.912 49 102.792 49C101.48 49.032 100.44 49.512 99.6722 50.44C98.9042 51.368 98.5202 52.584 98.5202 54.088V67H88.8242V40.888H98.5202V44.92C99.4482 43.48 100.6 42.392 101.976 41.656C103.384 40.888 105 40.504 106.824 40.504Z" fill="black"/>
<path d="M65.0672 54.1188C65.8729 53.8397 66.4914 53.4574 66.9011 52.9587C67.4454 52.2961 67.6939 51.2987 67.6939 50.016V46.912C67.6939 46.1939 67.8697 45.7811 68.1398 45.5746C68.2775 45.4693 68.504 45.3753 68.8436 45.3094C69.1798 45.2442 69.6079 45.21 70.1319 45.21H70.3819V44.96V40.192V39.942H70.1319H67.6039C66.0983 39.942 64.8929 40.092 64.0013 40.404C63.1 40.7195 62.4284 41.2457 62.01 41.9894L62.01 41.9894L62.0072 41.9947C61.6176 42.7279 61.4339 43.7127 61.4339 44.928V50.432C61.4339 50.8853 61.3487 51.1368 61.2411 51.2579L61.2411 51.2579L61.2398 51.2594C61.1623 51.3479 60.9878 51.43 60.6279 51.43H59.2839H59.0339V51.68V56.576V56.826H59.2839H60.6279C60.9798 56.826 61.1507 56.9147 61.2306 57.0175L61.2402 57.0298L61.2512 57.0408C61.3482 57.1378 61.4339 57.3592 61.4339 57.792V63.328C61.4339 64.5425 61.6174 65.5185 62.0087 66.2322L62.01 66.2346C62.4284 66.9783 63.1 67.5045 64.0013 67.82C64.8929 68.132 66.0983 68.282 67.6039 68.282H70.1319H70.3819V68.032V63.264V63.014H70.1319C69.6079 63.014 69.1798 62.9798 68.8436 62.9146C68.504 62.8487 68.2775 62.7547 68.1398 62.6494C67.8697 62.4429 67.6939 62.0301 67.6939 61.312V58.208C67.6939 56.9453 67.4449 55.9593 66.9011 55.2973C66.4918 54.799 65.8735 54.4103 65.0672 54.1188Z" fill="#FFC400" stroke="#FFC400" stroke-width="0.5"/>
<path d="M84.286 51.68V51.43H84.036H82.692C82.3491 51.43 82.1535 51.3553 82.048 51.258C81.957 51.1307 81.886 50.8749 81.886 50.432V44.928C81.886 43.7125 81.6916 42.7265 81.2793 41.992C80.8821 41.246 80.2195 40.7193 79.3186 40.404C78.427 40.092 77.2216 39.942 75.716 39.942H73.188H72.938V40.192V44.96V45.21H73.188C73.712 45.21 74.1401 45.2442 74.4764 45.3094C74.8159 45.3753 75.0424 45.4693 75.1801 45.5746C75.4502 45.7811 75.626 46.1939 75.626 46.912V50.016C75.626 51.2987 75.8745 52.2961 76.4188 52.9587C76.8285 53.4574 77.447 53.8397 78.2528 54.1188C77.4464 54.4103 76.8281 54.799 76.4188 55.2973C75.875 55.9593 75.626 56.9453 75.626 58.208V61.312C75.626 62.0301 75.4502 62.4429 75.1801 62.6494C75.0424 62.7547 74.8159 62.8487 74.4764 62.9146C74.1401 62.9798 73.712 63.014 73.188 63.014H72.938V63.264V68.032V68.282H73.188H75.716C77.2216 68.282 78.427 68.132 79.3186 67.82C80.2189 67.5049 80.8812 66.9787 81.2785 66.2334C81.6922 65.5187 81.886 64.5418 81.886 63.328V57.792C81.886 57.3549 81.9623 57.1273 82.0476 57.0293C82.1516 56.9129 82.3446 56.826 82.692 56.826H84.036H84.286V56.576V51.68Z" fill="#FFC400" stroke="#FFC400" stroke-width="0.5"/>
<path d="M36.0672 54.1188C36.8729 53.8397 37.4914 53.4574 37.9011 52.9587C38.4454 52.2961 38.6939 51.2987 38.6939 50.016V46.912C38.6939 46.1939 38.8697 45.7811 39.1398 45.5746C39.2775 45.4693 39.504 45.3753 39.8436 45.3094C40.1798 45.2442 40.6079 45.21 41.1319 45.21H41.3819V44.96V40.192V39.942H41.1319H38.6039C37.0983 39.942 35.8929 40.092 35.0013 40.404C34.1 40.7195 33.4284 41.2457 33.01 41.9894L33.01 41.9894L33.0072 41.9947C32.6176 42.7279 32.4339 43.7127 32.4339 44.928V50.432C32.4339 50.8853 32.3487 51.1368 32.2411 51.2579L32.2411 51.2579L32.2398 51.2594C32.1623 51.3479 31.9878 51.43 31.6279 51.43H30.2839H30.0339V51.68V56.576V56.826H30.2839H31.6279C31.9798 56.826 32.1507 56.9147 32.2306 57.0175L32.2402 57.0298L32.2512 57.0408C32.3482 57.1378 32.4339 57.3592 32.4339 57.792V63.328C32.4339 64.5425 32.6174 65.5185 33.0087 66.2322L33.01 66.2346C33.4284 66.9783 34.1 67.5045 35.0013 67.82C35.8929 68.132 37.0983 68.282 38.6039 68.282H41.1319H41.3819V68.032V63.264V63.014H41.1319C40.6079 63.014 40.1798 62.9798 39.8436 62.9146C39.504 62.8487 39.2775 62.7547 39.1398 62.6494C38.8697 62.4429 38.6939 62.0301 38.6939 61.312V58.208C38.6939 56.9453 38.4449 55.9593 37.9011 55.2973C37.4918 54.799 36.8735 54.4103 36.0672 54.1188Z" fill="#FFC400" stroke="#FFC400" stroke-width="0.5"/>
<path d="M55.286 51.68V51.43H55.036H53.692C53.3491 51.43 53.1535 51.3553 53.048 51.258C52.957 51.1307 52.886 50.8749 52.886 50.432V44.928C52.886 43.7125 52.6916 42.7265 52.2793 41.992C51.8821 41.246 51.2195 40.7193 50.3186 40.404C49.427 40.092 48.2216 39.942 46.716 39.942H44.188H43.938V40.192V44.96V45.21H44.188C44.712 45.21 45.1401 45.2442 45.4764 45.3094C45.8159 45.3753 46.0424 45.4693 46.1801 45.5746C46.4502 45.7811 46.626 46.1939 46.626 46.912V50.016C46.626 51.2987 46.8745 52.2961 47.4188 52.9587C47.8285 53.4574 48.447 53.8397 49.2528 54.1188C48.4464 54.4103 47.8281 54.799 47.4188 55.2973C46.875 55.9593 46.626 56.9453 46.626 58.208V61.312C46.626 62.0301 46.4502 62.4429 46.1801 62.6494C46.0424 62.7547 45.8159 62.8487 45.4764 62.9146C45.1401 62.9798 44.712 63.014 44.188 63.014H43.938V63.264V68.032V68.282H44.188H46.716C48.2216 68.282 49.427 68.132 50.3186 67.82C51.2189 67.5049 51.8812 66.9787 52.2785 66.2334C52.6922 65.5187 52.886 64.5418 52.886 63.328V57.792C52.886 57.3549 52.9623 57.1273 53.0476 57.0293C53.1516 56.9129 53.3446 56.826 53.692 56.826H55.036H55.286V56.576V51.68Z" fill="#FFC400" stroke="#FFC400" stroke-width="0.5"/>
</svg>
