<svg width="30" height="30" viewBox="0 0 30 30" fill="none" xmlns="http://www.w3.org/2000/svg">
<g clip-path="url(#clip0_3_241)">
<path d="M15 0.46875C6.97266 0.46875 0.46875 6.97266 0.46875 15C0.46875 23.0273 6.97266 29.5312 15 29.5312C23.0273 29.5312 29.5312 23.0273 29.5312 15C29.5312 6.97266 23.0273 0.46875 15 0.46875ZM19.6875 10.3125C20.7246 10.3125 21.5625 11.1504 21.5625 12.1875C21.5625 13.2246 20.7246 14.0625 19.6875 14.0625C18.6504 14.0625 17.8125 13.2246 17.8125 12.1875C17.8125 11.1504 18.6504 10.3125 19.6875 10.3125ZM10.3125 10.3125C11.3496 10.3125 12.1875 11.1504 12.1875 12.1875C12.1875 13.2246 11.3496 14.0625 10.3125 14.0625C9.27539 14.0625 8.4375 13.2246 8.4375 12.1875C8.4375 11.1504 9.27539 10.3125 10.3125 10.3125ZM21.7266 20.2852C20.0566 22.2891 17.6074 23.4375 15 23.4375C12.3926 23.4375 9.94336 22.2891 8.27344 20.2852C7.47656 19.3301 8.91797 18.1348 9.71484 19.084C11.0273 20.6602 12.9492 21.5566 15 21.5566C17.0508 21.5566 18.9727 20.6543 20.2852 19.084C21.0703 18.1348 22.5176 19.3301 21.7266 20.2852Z" fill="#13b8a5"/>
</g>
<defs>
<clipPath id="clip0_3_241">
<rect width="30" height="30" fill="white"/>
</clipPath>
</defs>
</svg>
